<svg xmlns="http://www.w3.org/2000/svg" viewBox="0 0 212.6 76.78" preserveAspectRatio="xMinYMid"><defs><style>.cls-2{fill:#fff;}</style></defs><title>BASFw_wh100tr</title><g id="BASFw_wh100tr_4c"><g class="cls-1"><path class="cls-2" d="M.17,1.5V39.58H38.25V1.5ZM26.53,27.86H11.89V13.22H26.53Z" transform="translate(-0.17 -0.36)"/><rect class="cls-2" x="49.8" y="12.86" width="14.65" height="14.65"/></g><path class="cls-2" d="M76.33,1.5H97.55c7.79,0,11.35,5.19,11.35,9.94,0,3.42-1.32,5.62-4.84,7.68,4.44,1.64,6.86,4.61,6.86,9.18,0,5.47-4,11.28-13.34,11.28H76.32ZM87.92,31H95.6a3.68,3.68,0,0,0,4-3.68A3.3,3.3,0,0,0,96,24.14H87.92Zm0-14.49h6.17c2.82,0,3.94-1.31,3.94-3.24a2.84,2.84,0,0,0-3.13-2.93H88Z" transform="translate(-0.17 -0.36)"/><path class="cls-2" d="M123,1.5h12.27l14,38H136.64l-1.85-5.69H123l-1.56,5.66H109Zm5.63,11.29-3.23,12.7h6.92Z" transform="translate(-0.17 -0.36)"/><path class="cls-2" d="M168.8,12.81h11.7c0-6.46-4.86-12.45-16.39-12.45-12.65,0-16.56,7-16.56,12.09,0,8.23,10.08,10.42,10.39,10.52,1.5.48,7.76,2.15,9.32,2.71,1.36.48,2.65,1.57,2.65,3,0,2.22-2.65,3.29-4.85,3.29-1.42,0-6.18-.47-6.18-5.51H146.8c0,6.69,4.61,14.19,17.53,14.19,14.27,0,17.25-8.51,17.25-13a10.5,10.5,0,0,0-6.92-9.74c-2.9-1.17-7.72-2.2-10.13-2.9-1.22-.36-5.28-1.18-5.28-3.66,0-3.17,5.23-2.76,4.47-2.76C166.08,8.57,168.8,9.9,168.8,12.81Z" transform="translate(-0.17 -0.36)"/><polygon class="cls-2" points="183.4 1.13 212.6 1.13 212.6 11.18 195.07 11.18 195.07 17.88 210.7 17.88 210.7 27.48 195.01 27.48 195.01 39.21 183.34 39.21 183.4 1.13"/><polygon class="cls-2" points="15.2 69.35 15.18 69.3 11.53 55.58 9.24 55.58 5.54 69.35 5.39 69.35 5.38 69.3 2.14 55.58 0.03 55.58 4.24 72 6.43 72 10.26 58.1 10.4 58.1 10.41 58.15 14.18 72 16.38 72 20.77 55.58 18.7 55.58 15.34 69.35 15.2 69.35"/><path class="cls-2" d="M30.66,62.54A5.23,5.23,0,0,0,29,60.88a4.89,4.89,0,0,0-2.62-.65,5.49,5.49,0,0,0-2.23.46A5.22,5.22,0,0,0,22.37,62a5.78,5.78,0,0,0-1.16,2,7.05,7.05,0,0,0-.42,2.48,9.76,9.76,0,0,0,.41,2.51,5.42,5.42,0,0,0,1.06,2A4.79,4.79,0,0,0,24,72.16a6.08,6.08,0,0,0,2.47.46,5.4,5.4,0,0,0,3.35-1,4.66,4.66,0,0,0,1.69-2.92H29.71a2.88,2.88,0,0,1-1.07,1.75,3.51,3.51,0,0,1-2.09.59,4.16,4.16,0,0,1-1.72-.33,3.4,3.4,0,0,1-1.2-.89,3.56,3.56,0,0,1-.69-1.27A5,5,0,0,1,22.75,67V67h9a9.6,9.6,0,0,0-.2-2.22,6.63,6.63,0,0,0-.87-2.21m-7.91,2.81v-.06A4.46,4.46,0,0,1,23.06,64a3.41,3.41,0,0,1,.71-1.1,3.25,3.25,0,0,1,1.07-.74,3.38,3.38,0,0,1,1.41-.28,3.31,3.31,0,0,1,1.38.28,3.54,3.54,0,0,1,1.09.73,3.48,3.48,0,0,1,.73,1.09,4.15,4.15,0,0,1,.31,1.35v.06Z" transform="translate(-0.17 -0.36)"/><path class="cls-2" d="M45.57,71a3.4,3.4,0,0,1-1.64-.38,3.21,3.21,0,0,1-1.1-1,4.34,4.34,0,0,1-.63-1.42,7,7,0,0,1-.2-1.64,8.64,8.64,0,0,1,.19-1.77,4.33,4.33,0,0,1,.62-1.51A3.27,3.27,0,0,1,44,62.24a3.86,3.86,0,0,1,1.82-.4,3.08,3.08,0,0,1,2,.64,3.17,3.17,0,0,1,1,1.75h1.91a4.61,4.61,0,0,0-.54-1.75,4,4,0,0,0-1.11-1.26,4.39,4.39,0,0,0-1.55-.75,7.22,7.22,0,0,0-1.9-.24,5.88,5.88,0,0,0-2.45.49,4.9,4.9,0,0,0-1.75,1.35,5.86,5.86,0,0,0-1,2,8.73,8.73,0,0,0-.35,2.5A8,8,0,0,0,40.4,69,5.37,5.37,0,0,0,41.45,71a4.63,4.63,0,0,0,1.74,1.23,6.19,6.19,0,0,0,2.4.44,5.14,5.14,0,0,0,3.58-1.19,5.41,5.41,0,0,0,1.63-3.32H48.91a3.49,3.49,0,0,1-1,2.14,3.29,3.29,0,0,1-2.32.78" transform="translate(-0.17 -0.36)"/><path class="cls-2" d="M56.83,60.87A5.4,5.4,0,0,0,55,63l0,0h-.06V60.51H53.2V72.36H55V67.1A8.56,8.56,0,0,1,55.27,65,4,4,0,0,1,56,63.49a3.22,3.22,0,0,1,1.37-1,5.77,5.77,0,0,1,2-.33v-2h-.14a4.24,4.24,0,0,0-2.41.64" transform="translate(-0.17 -0.36)"/><path class="cls-2" d="M69.44,62.54a5.29,5.29,0,0,0-1.67-1.66,4.89,4.89,0,0,0-2.62-.65,5.46,5.46,0,0,0-2.23.46A5.36,5.36,0,0,0,61.15,62a5.92,5.92,0,0,0-1.15,2,7.05,7.05,0,0,0-.42,2.48,9.77,9.77,0,0,0,.4,2.51,5.59,5.59,0,0,0,1.07,2,4.79,4.79,0,0,0,1.75,1.28,6,6,0,0,0,2.47.46,5.39,5.39,0,0,0,3.34-1,4.63,4.63,0,0,0,1.7-2.92H68.49a2.82,2.82,0,0,1-1.06,1.75,3.54,3.54,0,0,1-2.09.59,4.12,4.12,0,0,1-1.72-.33,3.43,3.43,0,0,1-1.21-.89,3.39,3.39,0,0,1-.68-1.27A5,5,0,0,1,61.54,67V67h9a9.57,9.57,0,0,0-.19-2.22,6.65,6.65,0,0,0-.88-2.21m-7.9,2.81v-.06A4.17,4.17,0,0,1,61.85,64a3.41,3.41,0,0,1,.71-1.1,3.15,3.15,0,0,1,1.07-.74,3.37,3.37,0,0,1,1.4-.28,3.24,3.24,0,0,1,1.38.28,3.38,3.38,0,0,1,1.82,1.82,4.16,4.16,0,0,1,.32,1.35v.06Z" transform="translate(-0.17 -0.36)"/><path class="cls-2" d="M82.47,70.66a4.41,4.41,0,0,1-.08-1V63.46A3.14,3.14,0,0,0,82,61.8a2.77,2.77,0,0,0-1-1,4.09,4.09,0,0,0-1.42-.46,9.47,9.47,0,0,0-3.49.09,4.69,4.69,0,0,0-1.58.67,3.47,3.47,0,0,0-1.09,1.22,4.17,4.17,0,0,0-.46,1.78h1.85a2,2,0,0,1,.93-1.78,4.26,4.26,0,0,1,2.12-.49,7.43,7.43,0,0,1,.94.07,2.68,2.68,0,0,1,.88.29,1.61,1.61,0,0,1,.65.62,2,2,0,0,1,.26,1.08,1.12,1.12,0,0,1-.35.89,2.29,2.29,0,0,1-.91.46,8.12,8.12,0,0,1-1.29.23c-.48,0-1,.13-1.54.24s-1,.21-1.49.35a4.08,4.08,0,0,0-1.28.6,3,3,0,0,0-.89,1,3.4,3.4,0,0,0-.34,1.63,3.49,3.49,0,0,0,.3,1.52,2.9,2.9,0,0,0,.84,1,3.62,3.62,0,0,0,1.24.57,6.68,6.68,0,0,0,1.52.17,6.23,6.23,0,0,0,2.3-.42,4.8,4.8,0,0,0,1.87-1.39l.11-.13v.17a1.8,1.8,0,0,0,.43,1.36,1.65,1.65,0,0,0,1.17.41,2.75,2.75,0,0,0,1.36-.28v-1.4a2,2,0,0,1-.54.09c-.35,0-.55-.12-.61-.37m-1.93-2.4a2.3,2.3,0,0,1-.21.91,2.71,2.71,0,0,1-.67.91,3.54,3.54,0,0,1-1.15.68,4.75,4.75,0,0,1-1.69.27,4.41,4.41,0,0,1-.89-.09,2.48,2.48,0,0,1-.76-.31,1.81,1.81,0,0,1-.53-.57,1.72,1.72,0,0,1-.2-.85A1.86,1.86,0,0,1,74.79,68a2.15,2.15,0,0,1,.89-.68A4.84,4.84,0,0,1,76.9,67c.42-.07.87-.13,1.33-.19a11,11,0,0,0,1.26-.21,2.37,2.37,0,0,0,1-.39l.1-.08Z" transform="translate(-0.17 -0.36)"/><path class="cls-2" d="M101.79,62.54a5.29,5.29,0,0,0-1.67-1.66,4.89,4.89,0,0,0-2.62-.65,5.42,5.42,0,0,0-2.23.46A5.26,5.26,0,0,0,93.5,62a6.12,6.12,0,0,0-1.16,2,7.29,7.29,0,0,0-.41,2.48,9.91,9.91,0,0,0,.4,2.51,5.51,5.51,0,0,0,1.07,2,4.79,4.79,0,0,0,1.75,1.28,6,6,0,0,0,2.47.46,5.37,5.37,0,0,0,3.34-1,4.72,4.72,0,0,0,1.7-2.92h-1.82a2.88,2.88,0,0,1-1.07,1.75,3.48,3.48,0,0,1-2.08.59A4.12,4.12,0,0,1,96,70.7a3.43,3.43,0,0,1-1.21-.89,3.39,3.39,0,0,1-.68-1.27A4.67,4.67,0,0,1,93.89,67V67h9a9,9,0,0,0-.2-2.22,6.63,6.63,0,0,0-.87-2.21m-7.86,2.81v-.06A3.92,3.92,0,0,1,94.24,64a3.41,3.41,0,0,1,.71-1.1A3.15,3.15,0,0,1,96,62.12a3.38,3.38,0,0,1,1.41-.28,3.31,3.31,0,0,1,1.38.28,3.38,3.38,0,0,1,1.08.73,3.31,3.31,0,0,1,.73,1.09,4.1,4.1,0,0,1,.32,1.35v.06Z" transform="translate(-0.17 -0.36)"/><path class="cls-2" d="M116.73,71a3.33,3.33,0,0,1-1.63-.38,3.24,3.24,0,0,1-1.11-1,4.58,4.58,0,0,1-.63-1.42,6.88,6.88,0,0,1-.19-1.64,8.57,8.57,0,0,1,.18-1.77,4.66,4.66,0,0,1,.62-1.51,3.35,3.35,0,0,1,1.17-1.07,3.86,3.86,0,0,1,1.82-.4,3.08,3.08,0,0,1,2,.64,3.05,3.05,0,0,1,1,1.75h1.92a4.62,4.62,0,0,0-.55-1.75,4,4,0,0,0-1.1-1.26,4.61,4.61,0,0,0-1.56-.75,7.2,7.2,0,0,0-1.89-.24,5.9,5.9,0,0,0-2.46.49,5,5,0,0,0-1.75,1.35,5.86,5.86,0,0,0-1,2,8.73,8.73,0,0,0-.34,2.5,8.29,8.29,0,0,0,.35,2.45,5.53,5.53,0,0,0,1,1.91,4.63,4.63,0,0,0,1.74,1.23,6.22,6.22,0,0,0,2.4.44,5.18,5.18,0,0,0,3.59-1.19A5.46,5.46,0,0,0,122,68.11h-1.88a3.55,3.55,0,0,1-1,2.14,3.27,3.27,0,0,1-2.32.78" transform="translate(-0.17 -0.36)"/><path class="cls-2" d="M133.34,61.44a3.2,3.2,0,0,0-1.25-.89,5.23,5.23,0,0,0-2-.32,5.34,5.34,0,0,0-1.09.12,4.47,4.47,0,0,0-1.07.35,3.63,3.63,0,0,0-.92.62,2.64,2.64,0,0,0-.7.91l0,0h-.09V55.94h-1.84V72.36h1.84v-6.7a4.88,4.88,0,0,1,.23-1.51,3.36,3.36,0,0,1,.67-1.22,3.17,3.17,0,0,1,1.12-.81,4.3,4.3,0,0,1,1.59-.28,2.49,2.49,0,0,1,1.83.67,2.42,2.42,0,0,1,.67,1.81v8h1.85V64.55a7.4,7.4,0,0,0-.2-1.76,3.24,3.24,0,0,0-.67-1.35" transform="translate(-0.17 -0.36)"/><path class="cls-2" d="M146.57,62.54a5.29,5.29,0,0,0-1.67-1.66,4.89,4.89,0,0,0-2.62-.65,5.5,5.5,0,0,0-2.24.46A5.32,5.32,0,0,0,138.28,62a6.12,6.12,0,0,0-1.16,2,7.29,7.29,0,0,0-.41,2.48,9.84,9.84,0,0,0,.4,2.51,5.59,5.59,0,0,0,1.07,2,4.79,4.79,0,0,0,1.75,1.28,6,6,0,0,0,2.46.46,5.4,5.4,0,0,0,3.35-1,4.72,4.72,0,0,0,1.7-2.92h-1.82a2.88,2.88,0,0,1-1.07,1.75,3.49,3.49,0,0,1-2.09.59,4.11,4.11,0,0,1-1.71-.33,3.35,3.35,0,0,1-1.21-.89,3.39,3.39,0,0,1-.68-1.27,4.67,4.67,0,0,1-.19-1.51V67h9a9,9,0,0,0-.2-2.22,6.63,6.63,0,0,0-.87-2.21m-7.91,2.81v-.06A3.92,3.92,0,0,1,139,64a3.39,3.39,0,0,1,.7-1.1,3.42,3.42,0,0,1,2.48-1,3.24,3.24,0,0,1,1.38.28,3.38,3.38,0,0,1,1.82,1.82,4.16,4.16,0,0,1,.32,1.35v.06Z" transform="translate(-0.17 -0.36)"/><path class="cls-2" d="M165.61,61a3.55,3.55,0,0,0-1.23-.61,6.67,6.67,0,0,0-1.62-.19,4.4,4.4,0,0,0-2.13.53,4.21,4.21,0,0,0-1.57,1.48l-.07.11,0-.12a2.53,2.53,0,0,0-1.24-1.54,4.29,4.29,0,0,0-2-.46,4.44,4.44,0,0,0-3.89,2l0,0h-.07V60.51H150V72.36h1.84V65a2.8,2.8,0,0,1,.18-.88,3.43,3.43,0,0,1,1.58-1.88,3,3,0,0,1,1.51-.36,2.6,2.6,0,0,1,1.12.21,1.61,1.61,0,0,1,.71.57,2.27,2.27,0,0,1,.37.87,5.2,5.2,0,0,1,.11,1.08v7.79h1.84V65a3.09,3.09,0,0,1,.85-2.26,3.18,3.18,0,0,1,2.34-.86,2.77,2.77,0,0,1,1.2.22,1.72,1.72,0,0,1,.73.59,2,2,0,0,1,.36.87,5.87,5.87,0,0,1,.09,1v7.79h1.85V63.64a3.88,3.88,0,0,0-.29-1.56,2.61,2.61,0,0,0-.79-1" transform="translate(-0.17 -0.36)"/><path class="cls-2" d="M171.76,58.23h-1.84V55.94h1.84Zm0,2.28h-1.84V72.36h1.84Z" transform="translate(-0.17 -0.36)"/><path class="cls-2" d="M182.78,71.84a3.42,3.42,0,0,0,1.16-1.14,3.21,3.21,0,0,0,.45-1.77,2.78,2.78,0,0,0-.33-1.41,3.09,3.09,0,0,0-.86-.94A4.76,4.76,0,0,0,182,66a13.26,13.26,0,0,0-1.44-.4l-1.39-.31a8.63,8.63,0,0,1-1.26-.37,3,3,0,0,1-.94-.57,1.31,1.31,0,0,1-.13-1.69,1.75,1.75,0,0,1,.62-.48,3.16,3.16,0,0,1,.84-.25,4.94,4.94,0,0,1,1.88,0,3.29,3.29,0,0,1,.89.34,2.12,2.12,0,0,1,.67.63,2,2,0,0,1,.3.94h1.85a4.26,4.26,0,0,0-.45-1.73,3.07,3.07,0,0,0-1-1.13,4.4,4.4,0,0,0-1.49-.6,9.84,9.84,0,0,0-1.87-.17,7.16,7.16,0,0,0-1.57.19A5.33,5.33,0,0,0,176,61a3.17,3.17,0,0,0-1,1,2.84,2.84,0,0,0-.4,1.52,2.54,2.54,0,0,0,.57,1.76,3.74,3.74,0,0,0,1.42,1,10.57,10.57,0,0,0,1.88.56,18.16,18.16,0,0,1,1.89.44,5,5,0,0,1,1.47.64,1.39,1.39,0,0,1,.61,1.21,1.49,1.49,0,0,1-.3,1,1.69,1.69,0,0,1-.73.56,3.59,3.59,0,0,1-1,.26,6.26,6.26,0,0,1-2.17,0,2.9,2.9,0,0,1-1-.39,2.13,2.13,0,0,1-.76-.73,2.4,2.4,0,0,1-.31-1.08h-1.84a4.37,4.37,0,0,0,.45,1.8,3.44,3.44,0,0,0,1.1,1.23,4.44,4.44,0,0,0,1.57.67,9,9,0,0,0,3.7,0,5,5,0,0,0,1.62-.61" transform="translate(-0.17 -0.36)"/><path class="cls-2" d="M189.38,56.92h-1.84v3.59h-2v1.61h2v7.69a4.31,4.31,0,0,0,.16,1.32,1.47,1.47,0,0,0,.48.76,1.85,1.85,0,0,0,.85.37,6.87,6.87,0,0,0,1.3.1h1.44V70.75h-.84c-.31,0-.57,0-.76,0a1.08,1.08,0,0,1-.48-.16.66.66,0,0,1-.25-.36,2.29,2.29,0,0,1-.06-.58v-7.5h2.46V60.51h-2.46Z" transform="translate(-0.17 -0.36)"/><path class="cls-2" d="M88.18,56.92H86.33v3.59h-2v1.61h2v7.69a4.65,4.65,0,0,0,.16,1.32,1.61,1.61,0,0,0,.48.76,1.9,1.9,0,0,0,.85.37,7,7,0,0,0,1.3.1h1.44V70.75h-.84c-.31,0-.56,0-.76,0a1.18,1.18,0,0,1-.48-.16.64.64,0,0,1-.24-.36,2.29,2.29,0,0,1-.06-.58v-7.5h2.46V60.51H88.18Z" transform="translate(-0.17 -0.36)"/><path class="cls-2" d="M196.42,63.14l0,0h-.07V60.51H194.6V72.36h1.85V67.24a8.62,8.62,0,0,1,.23-2.07,4,4,0,0,1,.76-1.54,3.22,3.22,0,0,1,1.37-1,5.71,5.71,0,0,1,2-.33v-2a4.38,4.38,0,0,0-2.54.64,5.47,5.47,0,0,0-1.82,2.13" transform="translate(-0.17 -0.36)"/><path class="cls-2" d="M206.88,75.46a13.32,13.32,0,0,0,.68-1.48l5.18-13.47h-2l-3.36,9.8h-.14v0l-3.49-9.76h-2.08l4.72,11.85v0l-.81,2a2.33,2.33,0,0,1-.67.84,1.66,1.66,0,0,1-1,.29,1.86,1.86,0,0,1-.61-.1l-.49-.16V77a2.65,2.65,0,0,0,.62.14,5.34,5.34,0,0,0,.69,0,3.51,3.51,0,0,0,1.14-.17,2.68,2.68,0,0,0,.87-.54,4.24,4.24,0,0,0,.73-1" transform="translate(-0.17 -0.36)"/></g></svg>